<?xml version="1.0" standalone="no"?>
<!DOCTYPE svg PUBLIC "-//W3C//DTD SVG 20010904//EN"
 "http://www.w3.org/TR/2001/REC-SVG-20010904/DTD/svg10.dtd">
<svg version="1.0" xmlns="http://www.w3.org/2000/svg"
 width="300.000000pt" height="300.000000pt" viewBox="0 0 300.000000 300.000000"
 preserveAspectRatio="xMidYMid meet">
<metadata>
Created by potrace 1.11, written by Peter Selinger 2001-2013
</metadata>
<g transform="translate(0.000000,300.000000) scale(0.100000,-0.100000)"
fill="#000000" stroke="none">
<path d="M376 2980 c-2 -5 0 -2936 3 -2955 1 -8 350 -11 1129 -10 l1127 0 1
1475 c0 811 -2 1480 -5 1485 -6 11 -2250 16 -2255 5z m2184 -148 c1 -99 1
-2666 0 -2709 l0 -33 -1055 0 -1055 0 0 1403 c0 772 3 1407 6 1410 4 4 479 7
1055 7 l1049 0 0 -78z"/>
<path d="M1100 2613 c-133 -34 -210 -135 -235 -308 -4 -27 -9 -61 -11 -75 -2
-14 -6 -47 -9 -74 -2 -27 -7 -56 -9 -65 -3 -9 -7 -38 -10 -66 -7 -63 -16 -133
-22 -165 -3 -14 -6 -39 -8 -56 -2 -17 -7 -51 -11 -75 -10 -64 -13 -88 -20
-149 -3 -30 -11 -84 -16 -120 -30 -191 7 -294 119 -336 92 -36 213 -17 303 47
42 30 94 113 108 174 19 85 54 336 55 399 l1 39 -90 -1 c-128 0 -132 -1 -132
-14 -1 -25 -15 -133 -18 -138 -2 -3 -7 -33 -10 -65 -4 -33 -9 -62 -10 -65 -2
-3 -7 -33 -10 -65 -9 -76 -19 -101 -45 -115 -36 -19 -52 4 -49 74 1 34 6 77
10 96 4 19 10 62 14 95 9 70 11 90 19 130 3 17 8 55 11 85 3 30 8 62 10 70 2
8 7 40 10 70 3 30 8 62 10 70 3 8 7 38 10 65 5 52 7 64 24 180 21 139 26 153
58 161 32 8 50 -12 47 -53 -3 -45 -38 -304 -49 -370 -4 -26 -9 -25 123 -27 88
-1 104 3 108 29 1 6 4 35 8 65 4 30 9 71 12 90 3 19 7 49 9 65 2 17 7 53 11
80 20 133 -3 237 -63 282 -61 44 -164 59 -253 36z"/>
<path d="M2068 1865 c-2 -2 -16 -5 -33 -8 -114 -18 -204 -114 -234 -247 -9
-42 -13 -70 -27 -190 -20 -176 -3 -223 125 -340 51 -46 100 -98 108 -114 23
-44 21 -91 -12 -306 -9 -59 -29 -96 -57 -103 -49 -13 -55 20 -34 163 3 19 8
56 11 82 3 26 9 68 14 93 5 25 8 46 7 46 0 1 -51 2 -113 3 l-112 1 -5 -30 c-3
-16 -8 -48 -11 -70 -6 -41 -8 -53 -22 -140 -14 -90 -9 -207 11 -244 51 -96
169 -138 296 -106 147 38 225 140 245 321 3 28 7 60 10 72 20 106 25 250 9
302 -14 49 -43 81 -144 160 -75 60 -108 110 -104 160 7 94 43 273 56 281 23
15 46 10 53 -12 6 -18 1 -91 -9 -146 -3 -11 -7 -44 -11 -74 -3 -30 -8 -62 -11
-71 -5 -16 5 -18 110 -18 86 0 116 3 117 13 0 6 2 21 4 32 12 57 26 180 29
240 5 109 -35 194 -107 225 -37 16 -149 34 -159 25z"/>
</g>
</svg>
